<svg width="76" height="82" viewBox="0 0 76 82" fill="none" xmlns="http://www.w3.org/2000/svg">
<path d="M41.4152 0.0389017C47.342 -0.217062 53.2553 0.792375 58.7615 3.00002C64.2678 5.20767 69.2406 8.56287 73.349 12.8423C74.4502 13.9621 77.6417 15.3433 74.5622 17.3216C72.4531 18.6654 71.1467 23.1821 67.0033 19.076C51.9976 4.27559 26.7827 6.51525 15.0992 23.3127C3.65824 39.7369 9.10808 61.5363 27.1747 71.6707C29.7876 73.1452 29.8249 79.3602 27.1747 80.8907C25.8309 81.6745 24.8044 80.592 23.8152 80.0695C8.38018 71.8387 -0.0372041 59.0726 0.000123617 41.6593C0.0444872 33.168 2.68383 24.8933 7.56426 17.9446C12.4447 10.9959 19.3329 5.70543 27.3053 2.78249C31.784 0.95417 36.5777 0.0220484 41.4152 0.0389017Z" fill="#0051BD"/>
<path d="M68.7205 41.8085C68.6896 37.2819 67.4757 32.842 65.1991 28.9294C62.9226 25.0167 59.6626 21.7674 55.7426 19.5036C51.8225 17.2399 47.3787 16.0405 42.852 16.0244C38.3253 16.0083 33.8731 17.1761 29.937 19.4119C29.2717 19.753 28.6459 20.1661 28.0706 20.6437C26.3722 22.0808 25.3271 20.961 24.3379 19.7852C22.7328 18.0494 24.3379 17.3402 25.4204 16.6683C36.1521 9.85599 47.2198 9.37073 58.3807 15.4365C68.7205 21.0356 75.3462 33.6897 73.7784 44.9813C72.024 57.6727 65.1744 66.5194 53.0055 71.1107C50.9152 71.8946 50.094 71.4653 49.2728 69.4496C48.2463 66.93 50.2433 67.042 51.4191 66.5567C62.7667 61.9094 68.7765 53.4361 68.7205 41.8085Z" fill="#2F80ED"/>
<path d="M42.3856 23.8538C37.8225 23.8337 33.4168 25.52 30.0332 28.5816C26.6497 31.6432 24.5327 35.8589 24.0979 40.4012C23.663 44.9435 24.9418 49.4843 27.6831 53.1322C30.4243 56.7801 34.4301 59.2716 38.9141 60.1176C40.4632 60.4163 42.6469 60.1176 42.2176 62.6932C41.7883 65.2689 39.5487 64.1304 38.2049 63.8131C28.6863 61.5921 22.3593 55.7876 20.4929 46.1571C19.5424 42.0116 19.9028 37.6733 21.5244 33.7416C23.1459 29.8098 25.9484 26.4787 29.5448 24.2084C37.4396 18.7212 45.7824 18.6093 54.1251 23.3872C55.418 24.1954 56.6249 25.1334 57.7272 26.1868C58.6044 26.9707 59.7429 27.7732 58.3431 29.1543C56.9433 30.5355 56.3648 29.6956 55.3383 28.837C51.8065 25.5973 47.1781 23.8166 42.3856 23.8538V23.8538Z" fill="#6C6C6C"/>
<path d="M58.026 40.8568C58.026 48.9569 52.4269 55.7879 45.6333 56.8144C44.4761 56.9824 42.4977 57.8222 42.1991 55.9372C41.9005 54.0522 43.8788 54.836 44.8867 54.5934C47.3856 54.1768 49.7011 53.0175 51.532 51.2666C53.3628 49.5156 54.6242 47.254 55.1518 44.7762C55.8007 42.4042 55.6846 39.8878 54.82 37.5856C53.9555 35.2834 52.3865 33.3127 50.3365 31.9542C48.4062 30.4212 46.0565 29.5096 43.5974 29.3397C41.1383 29.1697 38.6854 29.7494 36.5626 31.0023C36.0234 31.2746 35.5163 31.6064 35.0509 31.9915C34.1363 32.7754 33.1845 33.3166 32.4193 31.9915C31.654 30.6664 32.9978 30.4051 33.6697 29.9571C35.9473 28.2594 38.6557 27.2352 41.4867 27.0009C44.3177 26.7666 47.1577 27.3318 49.6833 28.632C52.0164 29.7689 54.013 31.4942 55.476 33.638C56.9389 35.7817 57.8179 38.2698 58.026 40.8568Z" fill="#6C6C6C"/>
<path d="M36.5623 42.462C36.5808 41.6624 36.7653 40.8753 37.1042 40.1509C37.4432 39.4264 37.9291 38.7803 38.5311 38.2538C39.1332 37.7272 39.8382 37.3316 40.6013 37.0922C41.3645 36.8527 42.1691 36.7746 42.964 36.8628C43.7311 36.866 44.4886 37.0334 45.1856 37.3536C45.8826 37.6739 46.503 38.1396 47.0051 38.7195C47.5072 39.2994 47.8794 39.98 48.0966 40.7157C48.3138 41.4513 48.3711 42.2249 48.2646 42.9846C48.2856 43.7516 48.1489 44.5147 47.8627 45.2266C47.5766 45.9385 47.1471 46.5841 46.6011 47.1231C46.0551 47.6621 45.4041 48.0832 44.6885 48.3601C43.973 48.6371 43.2081 48.764 42.4414 48.733C41.6424 48.7114 40.8555 48.5315 40.1264 48.2038C39.3973 47.8762 38.7403 47.4072 38.1936 46.824C37.6469 46.2408 37.2212 45.5551 36.9412 44.8063C36.6612 44.0576 36.5324 43.2608 36.5623 42.462V42.462Z" fill="#33AE31"/>
<path d="M35.6851 35.5001C38.4846 30.5729 46.8834 30.013 49.6269 34.5296C49.9629 35.0895 50.2429 35.6121 49.8509 36.1907C49.459 36.7693 48.8804 36.9932 48.3391 36.396C44.6064 32.2153 40.5377 33.7084 36.4689 35.8547C36.3196 35.9481 35.9464 35.6308 35.6851 35.5001Z" fill="#2F80ED"/>
</svg>
